<?xml version="1.0" standalone="no"?>
<!DOCTYPE svg PUBLIC "-//W3C//DTD SVG 20010904//EN"
 "http://www.w3.org/TR/2001/REC-SVG-20010904/DTD/svg10.dtd">
<svg version="1.0" xmlns="http://www.w3.org/2000/svg"
 width="1080.000000pt" height="1080.000000pt" viewBox="0 0 1080.000000 1080.000000"
 preserveAspectRatio="xMidYMid meet">
<metadata>
Created by potrace 1.14, written by Peter Selinger 2001-2017
</metadata>
<g transform="translate(0.000000,1080.000000) scale(0.100000,-0.100000)"
fill="#000000" stroke="none">
<path d="M0 5400 l0 -5400 5400 0 5400 0 0 5400 0 5400 -5400 0 -5400 0 0
-5400z m2500 1145 l0 -245 -605 0 -605 0 0 -350 0 -350 605 0 605 0 0 -66 0
-66 41 81 c135 270 371 463 667 543 109 30 343 30 454 0 226 -61 423 -192 558
-371 60 -79 139 -230 170 -325 l23 -69 27 79 c52 154 126 278 235 393 89 93
163 151 268 206 482 254 1056 67 1330 -435 103 -188 151 -479 113 -690 l-11
-65 -688 -5 -688 -5 29 -40 c56 -78 141 -138 241 -170 86 -28 217 -18 304 22
37 18 91 55 122 84 l54 51 205 -188 204 -188 -30 -38 c-104 -132 -329 -266
-524 -315 -106 -26 -324 -24 -437 5 -345 86 -615 343 -728 692 l-27 85 -687 3
-686 2 33 -46 c40 -57 97 -104 163 -137 75 -38 136 -50 230 -45 71 4 95 10
159 41 41 21 95 58 121 83 l47 45 41 -37 c258 -231 366 -337 358 -353 -16 -29
-144 -146 -206 -188 -295 -199 -657 -226 -970 -74 -119 59 -206 122 -299 221
-168 179 -269 412 -283 653 l-6 107 -568 0 -569 0 0 -530 0 -530 -250 0 -250
0 0 1385 0 1385 855 0 855 0 0 -245z m4530 -1140 l0 -1385 -285 0 -285 0 2
1287 3 1286 280 98 c154 54 281 98 283 98 1 1 2 -622 2 -1384z m860 -325 l0
-1060 -280 0 -280 0 2 952 3 951 275 108 c151 59 276 108 278 108 1 1 2 -476
2 -1059z m1229 1030 c545 -69 944 -593 882 -1160 -49 -457 -353 -817 -778
-922 -124 -31 -322 -31 -447 0 -180 45 -344 140 -477 279 -204 212 -301 456
-301 753 0 289 100 544 291 744 178 186 348 269 631 310 51 7 118 6 199 -4z"/>
<path d="M3326 5529 c-91 -22 -205 -102 -264 -186 l-23 -33 390 0 c215 0 391
3 391 8 0 16 -74 99 -121 133 -73 56 -149 81 -249 85 -47 2 -102 -1 -124 -7z"/>
<path d="M5250 5517 c-95 -32 -199 -115 -244 -194 -6 -10 74 -13 383 -13 238
0 391 4 391 9 0 19 -113 132 -157 158 -112 65 -255 81 -373 40z"/>
<path d="M8858 5571 c-375 -120 -489 -618 -207 -900 125 -125 309 -179 468
-136 233 62 391 270 392 515 1 107 -13 166 -58 257 -61 126 -174 224 -302 263
-82 26 -214 26 -293 1z"/>
</g>
</svg>
