<svg width="70" height="70" viewBox="0 0 70 70" fill="none" xmlns="http://www.w3.org/2000/svg">
<g clip-path="url(#clip0_118_291)">
<path d="M45.208 32.083C47.6243 32.083 49.583 30.1243 49.583 27.708C49.583 25.2918 47.6243 23.333 45.208 23.333C42.7918 23.333 40.833 25.2918 40.833 27.708C40.833 30.1243 42.7918 32.083 45.208 32.083Z" fill="black"/>
<path d="M24.792 32.083C27.2082 32.083 29.167 30.1243 29.167 27.708C29.167 25.2918 27.2082 23.333 24.792 23.333C22.3757 23.333 20.417 25.2918 20.417 27.708C20.417 30.1243 22.3757 32.083 24.792 32.083Z" fill="black"/>
<path d="M34.9705 5.83301C18.8705 5.83301 5.83301 18.8997 5.83301 34.9997C5.83301 51.0997 18.8705 64.1663 34.9705 64.1663C51.0997 64.1663 64.1663 51.0997 64.1663 34.9997C64.1663 18.8997 51.0997 5.83301 34.9705 5.83301ZM34.9997 58.333C22.108 58.333 11.6663 47.8913 11.6663 34.9997C11.6663 22.108 22.108 11.6663 34.9997 11.6663C47.8913 11.6663 58.333 22.108 58.333 34.9997C58.333 47.8913 47.8913 58.333 34.9997 58.333ZM20.4163 40.833C22.6913 47.658 28.3497 52.4997 34.9997 52.4997C41.6497 52.4997 47.308 47.658 49.583 40.833H20.4163Z" fill="black"/>
</g>
<defs>
<clipPath id="clip0_118_291">
<rect width="70" height="70" fill="white"/>
</clipPath>
</defs>
</svg>
