<svg width="59" height="64" viewBox="0 0 59 64" fill="none" xmlns="http://www.w3.org/2000/svg">
<path d="M0 16V6.4C0 4.64 0.5782 3.1328 1.7346 1.8784C2.88903 0.626133 4.2775 0 5.9 0H14.75V6.4H5.9V16H0ZM14.75 64H5.9C4.2775 64 2.88903 63.3739 1.7346 62.1216C0.5782 60.8672 0 59.36 0 57.6V48H5.9V57.6H14.75V64ZM44.25 64V57.6H53.1V48H59V57.6C59 59.36 58.4228 60.8672 57.2684 62.1216C56.1119 63.3739 54.7225 64 53.1 64H44.25ZM53.1 16V6.4H44.25V0H53.1C54.7225 0 56.1119 0.626133 57.2684 1.8784C58.4228 3.1328 59 4.64 59 6.4V16H53.1ZM33.925 24C32.3025 24 30.914 23.3728 29.7596 22.1184C28.6032 20.8661 28.025 19.36 28.025 17.6C28.025 15.84 28.6032 14.3339 29.7596 13.0816C30.914 11.8272 32.3025 11.2 33.925 11.2C35.5475 11.2 36.937 11.8272 38.0934 13.0816C39.2478 14.3339 39.825 15.84 39.825 17.6C39.825 19.36 39.2478 20.8661 38.0934 22.1184C36.937 23.3728 35.5475 24 33.925 24ZM31.86 51.2H20.06L23.01 34.88L17.7 37.12V48H11.8V32.96L23.4525 27.52C25.1733 26.72 26.4399 26.2005 27.2521 25.9616C28.0624 25.7205 28.8117 25.6 29.5 25.6C30.5325 25.6 31.4913 25.8933 32.3763 26.48C33.2613 27.0667 33.9742 27.84 34.515 28.8L37.465 33.92C38.7433 36.16 40.476 38 42.6629 39.44C44.8518 40.88 47.3475 41.6 50.15 41.6V48C46.905 48 43.8695 47.2661 41.0434 45.7984C38.2153 44.3328 35.8425 42.4 33.925 40L31.86 51.2Z" fill="#191B18"/>
</svg>
